<svg width="1077" height="1274" xmlns="http://www.w3.org/2000/svg" xmlns:xlink="http://www.w3.org/1999/xlink" xml:space="preserve" overflow="hidden"><g transform="translate(-1544 -449)"><g><path d="M1552.5 1280.68C1552.5 1248 1579 1221.5 1611.68 1221.5L1905.32 1221.5C1938 1221.5 1964.5 1248 1964.5 1280.68L1964.5 1657.32C1964.5 1690 1938 1716.5 1905.32 1716.5L1611.68 1716.5C1579 1716.5 1552.5 1690 1552.5 1657.32Z" stroke="#7F7F7F" stroke-width="6.875" stroke-linecap="butt" stroke-linejoin="miter" stroke-miterlimit="8" stroke-opacity="1" fill="none" fill-rule="evenodd"/><path d="M1582.5 1056.5 1934.5 1056.5C1946.65 1056.5 1956.5 1066.35 1956.5 1078.5L1956.5 1188.5 1560.5 1188.5 1560.5 1078.5C1560.5 1066.35 1570.35 1056.5 1582.5 1056.5Z" stroke="#7F7F7F" stroke-width="6.875" stroke-linecap="butt" stroke-linejoin="miter" stroke-miterlimit="8" stroke-opacity="1" fill="#CB3C33" fill-rule="evenodd" fill-opacity="1"/><path d="M1744.39 1056.5 1777.46 1056.5 1777.46 1188.5 1820.54 1188.5 1820.54 1056.5 1853.61 1056.5 1853.61 1188.5 1896.7 1188.5 1896.7 1056.5 1929.77 1056.5 1929.77 1188.5 1968.5 1188.5 1968.5 1221.5 1548.5 1221.5 1548.5 1188.5 1592.07 1188.5 1592.07 1057.92 1625.14 1057.92 1625.14 1188.5 1668.23 1188.5 1668.23 1057.92 1701.3 1057.92 1701.3 1188.5 1744.39 1188.5Z" stroke="#7F7F7F" stroke-width="6.875" stroke-linecap="butt" stroke-linejoin="miter" stroke-miterlimit="8" stroke-opacity="1" fill="#CB3C33" fill-rule="evenodd" fill-opacity="1"/><rect x="1552.5" y="1369.5" width="412" height="199" stroke="#7F7F7F" stroke-width="6.875" stroke-linecap="butt" stroke-linejoin="miter" stroke-miterlimit="8" stroke-opacity="1" fill="#CB3C33" fill-opacity="1"/><path d="M2558.58 1716.5 2262.42 1716.5C2230.43 1716.5 2204.5 1690.57 2204.5 1658.58L2204.5 1221.5 2616.5 1221.5 2616.5 1658.58C2616.5 1690.57 2590.57 1716.5 2558.58 1716.5Z" stroke="#7F7F7F" stroke-width="6.875" stroke-linecap="butt" stroke-linejoin="miter" stroke-miterlimit="8" stroke-opacity="1" fill="none" fill-rule="evenodd"/><path d="M2564.4 1713.5 2256.6 1713.5C2227.82 1713.5 2204.5 1690.18 2204.5 1661.4L2204.5 1429.5 2616.5 1429.5 2616.5 1661.4C2616.5 1690.18 2593.18 1713.5 2564.4 1713.5Z" stroke="#7F7F7F" stroke-width="6.875" stroke-linecap="butt" stroke-linejoin="miter" stroke-miterlimit="8" stroke-opacity="1" fill="#9558B2" fill-rule="evenodd" fill-opacity="1"/><path d="M1921 979.32 1802.24 707.617C1789.41 678.271 1802.81 644.084 1832.15 631.257L2232.58 456.237 2397.79 834.211 1997.36 1009.23C1968.01 1022.06 1933.82 1008.67 1921 979.32Z" stroke="#7F7F7F" stroke-width="6.875" stroke-linecap="butt" stroke-linejoin="miter" stroke-miterlimit="8" stroke-opacity="1" fill="none" fill-rule="evenodd"/><path d="M2327.06 682.5 2367.79 682.5C2411.81 682.5 2447.5 718.027 2447.5 761.852L2447.5 838.824 2447.5 841.417 2447.5 1117.9C2447.5 1137.01 2431.94 1152.5 2412.75 1152.5L2412.75 1152.5C2393.55 1152.5 2377.99 1137.01 2377.99 1117.9L2377.99 844.014 2232.5 907.503 2232.5 900.768 2378.3 837.331 2378.3 837.33 2398.59 828.501 2391.42 812.179 2391.42 812.179 2334.83 683.28Z" stroke="#7F7F7F" stroke-width="6.875" stroke-linecap="butt" stroke-linejoin="miter" stroke-miterlimit="8" stroke-opacity="1" fill="#389826" fill-rule="evenodd" fill-opacity="1"/><path d="M1850.86 684.5 2327.24 684.5 2334.98 685.28 2398.5 830.593 1997.98 1005.63C1968.63 1018.46 1934.44 1005.07 1921.61 975.717L1802.83 703.985 1800.5 693.219 1817.88 687.824C1828.53 685.644 1839.56 684.5 1850.86 684.5Z" stroke="#7F7F7F" stroke-width="6.875" stroke-linecap="butt" stroke-linejoin="miter" stroke-miterlimit="8" stroke-opacity="1" fill="#389826" fill-rule="evenodd" fill-opacity="1"/></g></g></svg>