<svg width="1082" height="1274" xmlns="http://www.w3.org/2000/svg" xmlns:xlink="http://www.w3.org/1999/xlink" xml:space="preserve" overflow="hidden"><g transform="translate(-1558 -467)"><g><path d="M1568.5 1300.83C1568.5 1268.06 1595.06 1241.5 1627.83 1241.5L1922.17 1241.5C1954.94 1241.5 1981.5 1268.06 1981.5 1300.83L1981.5 1677.17C1981.5 1709.94 1954.94 1736.5 1922.17 1736.5L1627.83 1736.5C1595.06 1736.5 1568.5 1709.94 1568.5 1677.17Z" stroke="#000000" stroke-width="6.875" stroke-linecap="butt" stroke-linejoin="miter" stroke-miterlimit="8" stroke-opacity="1" fill="none" fill-rule="evenodd"/><path d="M1598.5 1076.5 1950.5 1076.5C1962.65 1076.5 1972.5 1086.35 1972.5 1098.5L1972.5 1208.5 1576.5 1208.5 1576.5 1098.5C1576.5 1086.35 1586.35 1076.5 1598.5 1076.5Z" stroke="#000000" stroke-width="6.875" stroke-linecap="butt" stroke-linejoin="miter" stroke-miterlimit="8" stroke-opacity="1" fill="#CB3C33" fill-rule="evenodd" fill-opacity="1"/><path d="M1760.92 1076.5 1793.91 1076.5 1793.91 1208.5 1836.89 1208.5 1836.89 1076.5 1869.89 1076.5 1869.89 1208.5 1912.87 1208.5 1912.87 1076.5 1945.86 1076.5 1945.86 1208.5 1984.5 1208.5 1984.5 1241.5 1565.5 1241.5 1565.5 1208.5 1608.97 1208.5 1608.97 1077.92 1641.96 1077.92 1641.96 1208.5 1684.94 1208.5 1684.94 1077.92 1717.93 1077.92 1717.93 1208.5 1760.92 1208.5Z" stroke="#000000" stroke-width="6.875" stroke-linecap="butt" stroke-linejoin="miter" stroke-miterlimit="8" stroke-opacity="1" fill="#CB3C33" fill-rule="evenodd" fill-opacity="1"/><rect x="1568.5" y="1389.5" width="413" height="199" stroke="#000000" stroke-width="6.875" stroke-linecap="butt" stroke-linejoin="miter" stroke-miterlimit="8" stroke-opacity="1" fill="#CB3C33" fill-opacity="1"/><path d="M2575.44 1736.5 2278.56 1736.5C2246.49 1736.5 2220.5 1710.51 2220.5 1678.44L2220.5 1241.5 2633.5 1241.5 2633.5 1678.44C2633.5 1710.51 2607.51 1736.5 2575.44 1736.5Z" stroke="#000000" stroke-width="6.875" stroke-linecap="butt" stroke-linejoin="miter" stroke-miterlimit="8" stroke-opacity="1" fill="none" fill-rule="evenodd"/><path d="M2581.59 1733.5 2272.41 1733.5C2243.74 1733.5 2220.5 1710.26 2220.5 1681.59L2220.5 1450.5 2633.5 1450.5 2633.5 1681.59C2633.5 1710.26 2610.26 1733.5 2581.59 1733.5Z" stroke="#000000" stroke-width="6.875" stroke-linecap="butt" stroke-linejoin="miter" stroke-miterlimit="8" stroke-opacity="1" fill="#9558B2" fill-rule="evenodd" fill-opacity="1"/><path d="M1937.46 1000.11 1818.71 728.408C1805.88 699.062 1819.27 664.874 1848.62 652.048L2249.05 477.028 2414.25 855.002 2013.82 1030.02C1984.48 1042.85 1950.29 1029.46 1937.46 1000.11Z" stroke="#000000" stroke-width="6.875" stroke-linecap="butt" stroke-linejoin="miter" stroke-miterlimit="8" stroke-opacity="1" fill="none" fill-rule="evenodd"/><path d="M2343.62 702.5 2384.16 702.5C2427.98 702.5 2463.5 738.103 2463.5 782.021L2463.5 859.157 2463.5 861.756 2463.5 1138.83C2463.5 1157.98 2448.01 1173.5 2428.91 1173.5L2428.91 1173.5C2409.8 1173.5 2394.32 1157.98 2394.32 1138.83L2394.32 864.358 2249.5 927.982 2249.5 921.232 2394.62 857.66 2394.62 857.66 2414.82 848.812 2407.68 832.456 2407.68 832.456 2351.35 703.282Z" stroke="#000000" stroke-width="6.875" stroke-linecap="butt" stroke-linejoin="miter" stroke-miterlimit="8" stroke-opacity="1" fill="#389826" fill-rule="evenodd" fill-opacity="1"/><path d="M1866.86 704.5 2343.24 704.5 2350.98 705.28 2414.5 850.593 2013.98 1025.63C1984.63 1038.46 1950.44 1025.07 1937.61 995.717L1818.83 723.985 1816.5 713.219 1833.88 707.824C1844.53 705.644 1855.56 704.5 1866.86 704.5Z" stroke="#000000" stroke-width="6.875" stroke-linecap="butt" stroke-linejoin="miter" stroke-miterlimit="8" stroke-opacity="1" fill="#389826" fill-rule="evenodd" fill-opacity="1"/></g></g></svg>